<svg width="252" height="228" viewBox="0 0 252 228" fill="none" xmlns="http://www.w3.org/2000/svg">
<path d="M93.0674 28.1086C93.9533 33.0727 99.4518 36.7992 110.322 34.2821C121.192 31.7649 118.76 37.1086 130.994 35.0836C143.242 33.0586 131.078 22.793 128.73 22.7367C126.381 22.6805 105.147 21.8368 93.0674 28.0946V28.1086Z" fill="url(#paint0_linear_1925_1283)"/>
<path d="M125.692 22.6654C125.481 22.6654 125.256 22.6654 125.046 22.6654C99.4096 22.6654 76.3471 33.6764 60.3439 51.2404H5.17676C5.17676 45.6295 9.73301 41.0732 15.3439 41.0732C16.2299 41.0732 17.0736 41.1998 17.8752 41.4107C21.3486 35.1389 28.0283 30.9061 35.6924 30.9061C39.6439 30.9061 43.3143 32.0311 46.4361 33.9717C53.2846 16.9982 69.9064 5.00293 89.3408 5.00293C104.092 5.00293 117.241 11.9217 125.692 22.6936V22.6654Z" fill="#E1E4E6"/>
<path d="M235.085 211.806C233.552 211.806 232.117 212.13 230.796 212.72C227.266 205.872 220.136 201.189 211.91 201.189C207.789 201.189 203.95 202.37 200.688 204.395C193.544 186.663 176.191 174.147 155.899 174.147C135.606 174.147 118.253 186.663 111.11 204.395C107.847 202.37 104.008 201.189 99.8877 201.189C91.8861 201.189 84.9111 205.619 81.2971 212.158C80.4533 211.933 79.5674 211.806 78.6533 211.806C72.7893 211.806 68.0361 216.559 68.0361 222.424H245.73C245.73 216.559 240.977 211.806 235.113 211.806H235.085Z" fill="#E1E4E6"/>
<path d="M127.773 143.434C126.268 145.22 124.581 146.936 122.739 148.356C117.634 152.279 114.231 157.37 111.798 163.206C110.265 166.904 108.915 170.673 107.2 174.287C105.568 177.69 103.782 181.065 101.673 184.201C99.3528 187.675 100.618 191.289 101.195 195.451C101.856 199.079 101.097 201.048 99.6621 201.808C97.6512 202.876 94.3184 201.554 91.6887 199.037C89.9731 197.434 88.5668 195.325 88.0184 193.047C83.6449 179.589 83.5887 166.919 76.5575 155.12C74.2793 151.281 71.5934 147.808 67.6418 145.445C65.7012 144.278 65.0121 142.619 65.2793 140.2C66.8121 126.925 61.9325 116.294 51.2028 108.362C48.4325 106.309 46.3512 104.129 45.9996 100.6C45.6903 97.5623 43.2996 96.0998 41.12 94.4966C37.759 92.0498 37.6606 92.0216 38.9262 88.042C39.9809 84.7373 40.9231 81.6435 41.8231 78.7607C49.7825 60.5216 63.634 45.4045 80.9871 35.7295C82.0981 35.4904 82.984 35.7013 83.6168 36.9107C86.0778 41.481 109.084 37.0935 109.9 42.3107C110.926 48.8216 108.845 54.067 103.445 57.7795C100.267 59.9732 96.8075 61.7732 93.3481 63.5451C81.3528 69.6482 89.5934 78.2263 81.7746 89.0826C81.2543 89.7998 80.8325 90.7138 80.1153 91.1638C79.5106 91.5435 78.3575 91.7123 77.7668 91.4029C76.5715 90.742 73.4496 88.1545 72.9012 87.817C72.5356 88.4498 54.3246 99.2076 57.995 102.878C58.7262 103.595 59.5559 104.326 60.47 104.734C63.5215 106.042 64.3231 108.208 63.9153 111.4C63.17 117.25 67.1075 120.864 73.0137 119.725C75.9106 119.162 78.7371 118.051 81.4934 116.954C87.3715 114.62 93.3481 114.24 99.4653 115.759C103.74 116.828 107.284 119.204 110.673 121.919C113.261 123.986 115.834 126.095 118.562 128.008C121.276 129.892 124.328 131.059 127.731 130.919C129.812 130.848 130.811 131.861 130.937 133.858C131.19 137.472 130.051 140.692 127.745 143.42L127.773 143.434Z" fill="url(#paint1_linear_1925_1283)"/>
<path d="M145.253 24.7749C145.999 24.2264 147.433 24.0296 148.319 24.3389C153.297 26.0264 158.163 28.0233 163.141 29.6827C169.764 31.8905 175.6 35.5186 181.042 39.7092C185.43 43.0983 189.325 47.0921 193.544 50.7061C196.849 53.5327 191.674 50.8889 190.113 54.4467C187.596 60.1702 178.736 73.9655 183.728 73.5999C186.85 73.3608 206.988 70.478 208.267 73.2764C211.741 80.828 214.61 88.5342 215.903 96.7467C216.522 100.656 217.042 104.594 217.169 108.545C217.225 110.176 216.339 111.99 215.481 113.481C213.752 116.476 211.431 119.148 209.927 122.228C206.425 129.428 206.847 136.6 198.902 142.492C195.822 144.784 194.838 147.794 194.711 150.958C194.655 152.294 195.485 154.178 192.827 154.684C190.014 155.219 189.353 153.264 188.256 152.04C182.814 145.951 184.024 139.173 182.674 132.17C182.069 129.048 181.296 125.926 180.297 122.903C177.836 115.45 172.999 111.864 165.222 111.315C160.863 111.006 156.447 110.894 152.172 110.092C146.322 108.995 143.58 105.325 142.666 99.4749C140.824 87.5639 146.814 74.9217 159.119 69.0436C163.014 67.1874 157.741 59.6921 155.716 60.5921C153.438 61.6046 152.383 61.0983 152.678 58.7077C153.297 53.7717 155.8 46.4733 155.533 43.2952C155.28 40.2014 153.817 39.3717 150.724 39.3577C147.658 39.3577 143.214 26.2655 145.253 24.7467V24.7749Z" fill="url(#paint2_linear_1925_1283)"/>
<path d="M206.186 70.6329C213.189 83.5704 217.169 98.3923 217.169 114.128C217.169 164.641 176.233 205.563 125.734 205.563C121.965 205.563 118.239 205.338 114.597 204.888C109.478 204.269 104.486 203.214 99.6623 201.794C96.9482 200.992 94.2904 200.064 91.6889 199.009C58.0373 185.524 34.2998 152.603 34.2998 114.128C34.2998 101.191 36.9857 88.886 41.8373 77.7485C49.7967 59.3548 63.6482 44.111 81.0014 34.3657C94.2342 26.9407 109.492 22.6938 125.748 22.6938C140.303 22.6938 154.056 26.097 166.276 32.1438" stroke="black" stroke-width="2" stroke-linecap="round" stroke-linejoin="round"/>
<path d="M125.735 205.576C123.892 205.576 122.064 205.351 120.278 204.901C117.775 204.282 115.328 203.227 112.98 201.807C111.658 201.005 110.35 200.077 109.071 199.023C92.6034 185.537 80.9878 152.616 80.9878 114.141C80.9878 101.204 82.2956 88.8992 84.6722 77.7617C88.5675 59.368 95.3456 44.1242 103.839 34.3789C110.308 26.9539 117.789 22.707 125.735 22.707" stroke="black" stroke-width="2" stroke-linecap="round" stroke-linejoin="round"/>
<path d="M125.087 205.576C126.93 205.576 128.758 205.351 130.544 204.901C133.047 204.282 135.494 203.227 137.842 201.807C139.164 201.005 140.472 200.077 141.751 199.023C158.219 185.537 169.834 152.616 169.834 114.141C169.834 101.204 168.526 88.8992 166.15 77.7617C162.255 59.368 155.476 44.1242 146.983 34.3789C140.514 26.9539 133.033 22.707 125.087 22.707" stroke="black" stroke-width="2" stroke-linecap="round" stroke-linejoin="round"/>
<path d="M210.686 114.128C210.686 139.567 171.198 160.169 122.486 160.169C118.843 160.169 115.258 160.056 111.742 159.831C106.806 159.522 101.997 158.987 97.3419 158.27C94.7263 157.862 92.1669 157.398 89.6497 156.864C57.1935 150.072 34.2856 133.492 34.2856 114.128" stroke="black" stroke-width="2" stroke-linecap="round" stroke-linejoin="round"/>
<path d="M56.6313 63.9813C61.272 77.0031 77.711 87.7188 99.5501 92.5422C101.561 92.9922 103.614 93.3859 105.695 93.7375C109.408 94.3422 113.261 94.7922 117.199 95.0594C120.011 95.2422 122.88 95.3406 125.791 95.3406C164.73 95.3406 196.314 77.9172 196.314 56.4297" stroke="black" stroke-width="2" stroke-linecap="round" stroke-linejoin="round"/>
<path d="M102.138 57.7095C87.0063 57.7095 74.7017 70.0142 74.7017 85.1454C74.7017 93.7657 80.0735 100.319 85.7548 107.266C90.6485 113.242 95.711 119.43 97.7079 127.403C98.2142 129.442 100.042 130.863 102.138 130.863C104.233 130.863 106.061 129.428 106.567 127.403C108.564 119.43 113.627 113.242 118.52 107.266C124.202 100.319 129.574 93.7657 129.574 85.1454C129.574 70.0142 117.269 57.7095 102.138 57.7095Z" fill="url(#paint3_linear_1925_1283)"/>
<path d="M101.688 97.1691C108.243 97.1691 113.557 91.8553 113.557 85.3004C113.557 78.7455 108.243 73.4316 101.688 73.4316C95.1332 73.4316 89.8193 78.7455 89.8193 85.3004C89.8193 91.8553 95.1332 97.1691 101.688 97.1691Z" stroke="black" stroke-width="2" stroke-linecap="round" stroke-linejoin="round"/>
<path d="M189.029 24.7612C175.937 24.7612 165.292 35.4065 165.292 48.4987C165.292 55.9659 169.933 61.6331 174.854 67.6378C179.087 72.8128 183.475 78.1565 185.19 85.0612C185.626 86.819 187.215 88.0565 189.029 88.0565C190.844 88.0565 192.419 86.819 192.869 85.0612C194.598 78.1565 198.972 72.8128 203.204 67.6378C208.112 61.6331 212.767 55.9519 212.767 48.4987C212.767 35.4065 202.122 24.7612 189.029 24.7612Z" fill="url(#paint4_linear_1925_1283)"/>
<path d="M188.636 58.9053C194.305 58.9053 198.901 54.3092 198.901 48.6397C198.901 42.9701 194.305 38.374 188.636 38.374C182.966 38.374 178.37 42.9701 178.37 48.6397C178.37 54.3092 182.966 58.9053 188.636 58.9053Z" stroke="black" stroke-width="2" stroke-linecap="round" stroke-linejoin="round"/>
<defs>
<linearGradient id="paint0_linear_1925_1283" x1="103.994" y1="40.9617" x2="126.269" y2="18.6868" gradientUnits="userSpaceOnUse">
<stop stop-color="#0058A5"/>
<stop offset="0.14" stop-color="#0068B1"/>
<stop offset="0.52" stop-color="#008FD0"/>
<stop offset="0.82" stop-color="#00A8E3"/>
<stop offset="1" stop-color="#00B1EA"/>
</linearGradient>
<linearGradient id="paint1_linear_1925_1283" x1="49.684" y1="157.047" x2="137.378" y2="69.3388" gradientUnits="userSpaceOnUse">
<stop stop-color="#0058A5"/>
<stop offset="0.14" stop-color="#0068B1"/>
<stop offset="0.52" stop-color="#008FD0"/>
<stop offset="0.82" stop-color="#00A8E3"/>
<stop offset="1" stop-color="#00B1EA"/>
</linearGradient>
<linearGradient id="paint2_linear_1925_1283" x1="147.517" y1="111.653" x2="201.025" y2="58.1452" gradientUnits="userSpaceOnUse">
<stop stop-color="#0058A5"/>
<stop offset="0.14" stop-color="#0068B1"/>
<stop offset="0.52" stop-color="#008FD0"/>
<stop offset="0.82" stop-color="#00A8E3"/>
<stop offset="1" stop-color="#00B1EA"/>
</linearGradient>
<linearGradient id="paint3_linear_1925_1283" x1="80.5376" y1="111.161" x2="123.738" y2="67.961" gradientUnits="userSpaceOnUse">
<stop stop-color="#F0B323"/>
<stop offset="1" stop-color="#F0B323"/>
</linearGradient>
<linearGradient id="paint4_linear_1925_1283" x1="170.34" y1="71.0128" x2="207.719" y2="33.6347" gradientUnits="userSpaceOnUse">
<stop stop-color="#F0B323"/>
<stop offset="1" stop-color="#F0B323"/>
</linearGradient>
</defs>
</svg>
