<svg width="270" height="213" viewBox="0 0 270 213" fill="none" xmlns="http://www.w3.org/2000/svg">
<path d="M237.136 97.2044C241.946 100.945 247.261 108.103 247.261 121.42V145.537C247.261 145.537 235.899 154.608 205.242 154.608C174.586 154.608 155.996 146.479 155.996 146.479V134.864L136.463 143.92C139.092 146.592 141.75 150.304 141.75 154.383V187.008C141.75 187.008 126.675 195.164 97.8893 195.164C64.3783 195.164 45.1971 190.748 45.1971 190.748L45.7174 186.009L1.29395 206.625H262.969V85.2231L237.136 97.2044Z" fill="#E1E4E6"/>
<path d="M79.3548 146.522H79.8892C81.3376 146.522 82.5188 147.703 82.5188 149.152V155.719H76.7251V149.152C76.7251 147.703 77.9063 146.522 79.3548 146.522Z" fill="black"/>
<path d="M230.541 80.5125C231.201 78.9937 231.581 77.2922 231.581 75.4781C231.581 74.8172 231.525 74.1703 231.426 73.5375C237.305 71.8078 241.608 66.3797 241.608 59.9531C241.608 54.3844 238.373 49.575 233.705 47.2547C236.391 45.2156 238.078 41.9672 238.078 37.1859C238.078 27.8484 231.736 20.2828 223.903 20.2828C222.609 20.2828 221.358 20.4937 220.176 20.8875C220.331 16.9781 219.037 11.8875 212.287 8.87811C202.823 4.67343 192.051 6.3328 186.047 12.7172C180.07 12.0141 174.15 15.375 171.872 21.2531C170.311 25.2891 170.817 29.6203 172.884 33.0797C169.017 39.0984 170.325 46.6922 176.386 50.9953C176.498 51.0797 176.611 51.15 176.737 51.2203C177.342 51.6422 178.003 52.0078 178.664 52.3453C178.551 51.6422 178.383 50.925 178.411 50.1656C178.58 44.1891 179.409 40.3781 180.422 36.9187C183.276 37.9453 188.705 38.4937 189.436 38.4375C191.503 38.2828 197.241 39.7453 205.551 31.7156C210.459 26.9766 210.487 31.5328 210.178 32.9953C212.808 38.2547 216.309 37.0875 216.309 37.0875C215.648 38.6203 215.212 40.0406 214.945 41.3625C214.523 43.3172 214.481 45.0328 214.608 46.4531C214.65 46.9031 214.706 47.325 214.762 47.7328C215.241 50.4328 216.309 51.8672 216.309 51.8672C216.309 51.8672 217.209 50.9391 218.461 50.0531C218.573 49.8562 218.658 49.6312 218.756 49.4203C218.911 49.4625 219.066 49.5047 219.22 49.5469C220.275 49.7859 221.386 49.9125 222.539 49.9687C223.242 51.1219 223.72 52.8375 223.72 55.2141C223.72 63.7078 217.083 62.7797 217.083 62.7797C216.787 63.8484 216.562 64.9031 216.366 65.9437C213.623 67.9547 211.795 71.4703 211.795 75.4781C211.795 80.5125 214.664 84.7594 218.63 86.2359C218.63 86.25 218.601 86.2781 218.601 86.2922L225.675 89.4281C229.655 91.0594 233.198 93.5344 236.222 96.6C237.234 94.9406 237.811 92.9437 237.811 90.8203C237.811 85.9266 234.745 81.8062 230.555 80.5125H230.541Z" fill="url(#paint0_linear_1925_1247)"/>
<path d="M45.2393 192.718V157.323C45.2393 142.416 54.1268 127.313 67.6689 121.773L78.8768 116.809L97.6643 146.945V195.376" stroke="black" stroke-width="2" stroke-linecap="round" stroke-linejoin="round"/>
<path d="M141.638 188.751V157.336C141.638 142.43 134.438 127.326 120.895 121.786L109.688 116.822L101.053 138.816" stroke="black" stroke-width="2" stroke-linecap="round" stroke-linejoin="round"/>
<path d="M65.5312 167.56V194.053" stroke="black" stroke-width="2" stroke-linecap="round" stroke-linejoin="round"/>
<path d="M126.788 167.56V191.396" stroke="black" stroke-width="2" stroke-linecap="round" stroke-linejoin="round"/>
<path d="M67.2188 155.719L86.0203 155.845" stroke="black" stroke-width="2" stroke-linecap="round" stroke-linejoin="round"/>
<path d="M72.042 141.853V155.845" stroke="black" stroke-width="2" stroke-linecap="round" stroke-linejoin="round"/>
<path d="M118.322 62.4007C122.836 58.8148 125.48 52.9789 124.537 46.5804C123.483 39.4789 117.844 33.6992 110.77 32.5039C103.247 31.2382 96.4405 34.9367 93.0936 40.857C90.928 39.6757 88.4671 39.0148 85.8233 39.0148C79.8327 39.0148 74.6577 42.4882 72.1827 47.5226C71.9015 47.4945 71.6202 47.4804 71.339 47.4804C65.2077 47.4804 60.2437 52.782 60.2437 59.3211C60.2437 62.9492 61.7765 66.1836 64.1671 68.3492C63.9562 69.2492 63.8296 70.1773 63.8296 71.1617C63.8296 74.0164 64.814 76.5898 66.389 78.432C68.2733 80.6257 71.8733 78.9242 71.4796 76.0554C71.0437 72.9054 70.5937 68.9679 70.5937 66.0851C70.5937 66.0711 74.4468 64.4679 74.4468 64.4539C77.7093 62.8226 76.8655 62.0773 78.6374 60.2492C80.6905 61.2757 87.0187 61.5992 89.1983 62.6961C92.5874 64.3836 98.2405 63.0476 98.1983 63.0757C100.926 64.9601 104.231 66.0851 107.803 66.0851C109.406 66.0851 112.641 64.1586 114.103 63.7367C114.258 65.0867 114.412 66.6195 114.595 68.2367C115.2 73.8054 114.005 80.0211 114.005 80.0211C118.645 79.5148 121.922 74.5929 121.317 69.0101C121.022 66.3664 119.911 64.0601 118.322 62.4007Z" fill="url(#paint1_linear_1925_1247)"/>
<path d="M99.647 62.6953C110.559 69.4594 119.658 61.0078 119.658 61.0078" stroke="black" stroke-width="2" stroke-linecap="round" stroke-linejoin="round"/>
<path d="M114.581 71.1468C116.269 86.3624 112.894 111.745 94.2889 110.044C77.3577 108.511 72.2952 93.1265 72.2952 93.1265C72.2952 93.1265 62.1421 91.439 63.8436 82.9733C65.5311 74.5218 70.6077 81.2858 70.6077 81.2858C70.6077 81.2858 72.2952 74.5218 68.9202 66.0702C68.9202 66.0702 75.8671 65.8312 78.6655 58.8421C78.6655 58.8421 93.4171 70.3312 106.13 57.6187" stroke="black" stroke-width="2" stroke-linecap="round" stroke-linejoin="round"/>
<path d="M178.707 41.124C177.075 55.7209 178.383 79.7959 196.257 78.1787C212.499 76.7022 217.35 61.9506 217.35 61.9506C224.86 61.9506 225.971 51.8678 222.624 49.6318C219.994 47.874 216.338 51.8678 216.338 51.8678C216.338 51.8678 215.255 50.4334 214.777 47.7334C214.707 47.3256 214.65 46.9178 214.622 46.4537C214.482 45.0334 214.538 43.3178 214.96 41.3631C215.227 40.0412 215.677 38.6209 216.324 37.0881C216.324 37.0881 210.952 37.0881 209.602 29.0303" stroke="black" stroke-width="2" stroke-linecap="round" stroke-linejoin="round"/>
<path d="M94.2891 74.5366C94.5563 76.4632 95.0484 78.7694 95.9766 81.3007C96.1172 81.6944 96.2719 82.0741 96.4266 82.4538C97.5234 85.1397 95.4984 88.0647 92.6016 88.0647" stroke="black" stroke-width="2" stroke-linecap="round" stroke-linejoin="round"/>
<path d="M84.1357 76.2231V79.6122" stroke="black" stroke-width="2" stroke-linecap="round" stroke-linejoin="round"/>
<path d="M104.428 76.2231V79.6122" stroke="black" stroke-width="2" stroke-linecap="round" stroke-linejoin="round"/>
<path d="M87.1733 95.3208C88.1718 98.4849 91.5468 100.243 94.7108 99.2583" stroke="black" stroke-width="2" stroke-linecap="round" stroke-linejoin="round"/>
<path d="M195.047 45.4404C194.794 47.2967 194.316 49.5045 193.43 51.9373C193.289 52.317 193.148 52.6826 192.994 53.0342C191.939 55.6076 193.88 58.4201 196.664 58.4201" stroke="black" stroke-width="2" stroke-linecap="round" stroke-linejoin="round"/>
<path d="M204.778 47.0576V50.3061" stroke="black" stroke-width="2" stroke-linecap="round" stroke-linejoin="round"/>
<path d="M185.302 47.0576V50.3061" stroke="black" stroke-width="2" stroke-linecap="round" stroke-linejoin="round"/>
<path d="M201.867 65.3818C200.911 68.4193 197.677 70.1068 194.639 69.1506" stroke="black" stroke-width="2" stroke-linecap="round" stroke-linejoin="round"/>
<path d="M81.3657 105.346C85.7251 112.968 81.4501 119.029 81.4501 119.029" stroke="black" stroke-width="2" stroke-linecap="round" stroke-linejoin="round"/>
<path d="M106.074 106.654C102.741 111.744 108.043 119.029 108.043 119.029" stroke="black" stroke-width="2" stroke-linecap="round" stroke-linejoin="round"/>
<path d="M78.8765 116.822C82.8421 114.839 81.4499 119.044 81.4499 119.044" stroke="black" stroke-width="2" stroke-linecap="round" stroke-linejoin="round"/>
<path d="M109.688 116.821C105.258 114.838 107.438 117.341 107.438 117.341" stroke="black" stroke-width="2" stroke-linecap="round" stroke-linejoin="round"/>
<path d="M218.995 92.1711L217.941 93.3383L205.566 106.951L200.194 100.229L214.917 84.6758L218.602 86.307L225.675 89.443C229.655 91.0742 233.199 93.5492 236.222 96.6148C243.099 103.604 247.205 113.616 247.205 123.559V145.988" stroke="black" stroke-width="2" stroke-linecap="round" stroke-linejoin="round"/>
<path d="M154.688 145.988V123.559C154.688 109.257 161.592 94.7586 174.6 89.443L185.358 84.6758L190.786 98.893L184.064 104.265L180.028 92.1711" stroke="black" stroke-width="2" stroke-linecap="round" stroke-linejoin="round"/>
<path d="M226.477 133.105V153.159" stroke="black" stroke-width="2" stroke-linecap="round" stroke-linejoin="round"/>
<path d="M168.933 130.588V150.656" stroke="black" stroke-width="2" stroke-linecap="round" stroke-linejoin="round"/>
<path d="M189.746 77.6011C190.603 81.3979 186.919 86.812 186.919 86.812" stroke="black" stroke-width="2" stroke-linecap="round" stroke-linejoin="round"/>
<path d="M187.51 85.1677C187.51 85.1677 189.605 82.7771 185.358 84.6755" stroke="black" stroke-width="2" stroke-linecap="round" stroke-linejoin="round"/>
<path d="M200.194 100.228C192.136 108.286 194.822 125.751 194.822 125.751" stroke="black" stroke-width="2" stroke-linecap="round" stroke-linejoin="round"/>
<path d="M190.786 98.8921C193.472 105.614 194.822 108.3 194.822 108.3" stroke="black" stroke-width="2" stroke-linecap="round" stroke-linejoin="round"/>
<path d="M173.32 31.7303C189.436 45.16 204.216 34.4162 210.938 26.3584" stroke="black" stroke-width="2" stroke-linecap="round" stroke-linejoin="round"/>
<path d="M212.512 70.6826C211.387 77.5451 214.917 84.6748 214.917 84.6748" stroke="black" stroke-width="2" stroke-linecap="round" stroke-linejoin="round"/>
<defs>
<linearGradient id="paint0_linear_1925_1247" x1="193.626" y1="68.5453" x2="235.476" y2="26.6953" gradientUnits="userSpaceOnUse">
<stop stop-color="#F0B323"/>
<stop offset="1" stop-color="#F0B323"/>
</linearGradient>
<linearGradient id="paint1_linear_1925_1247" x1="71.6624" y1="83.7054" x2="118.969" y2="36.3851" gradientUnits="userSpaceOnUse">
<stop stop-color="#0058A5"/>
<stop offset="0.14" stop-color="#0068B1"/>
<stop offset="0.52" stop-color="#008FD0"/>
<stop offset="0.82" stop-color="#00A8E3"/>
<stop offset="1" stop-color="#00B1EA"/>
</linearGradient>
</defs>
</svg>
