<svg width="233" height="228" viewBox="0 0 233 228" fill="none" xmlns="http://www.w3.org/2000/svg">
<path d="M45.6532 202.63C44.697 198.903 41.7579 195.964 38.0454 194.994C38.3407 176.516 38.4814 157.799 38.4673 139.349C38.4673 121.982 38.3126 104.403 38.0454 87.0784C39.522 86.6847 41.2939 85.8972 42.8829 84.3222C44.247 82.9581 45.2032 81.2847 45.6673 79.4565H196.361C197.317 83.1409 200.2 86.0659 203.87 87.0644C202.844 103.982 202.281 121.11 202.225 138.027C202.155 156.955 202.717 176.122 203.87 195.05C202.408 195.444 200.692 196.232 199.145 197.778C197.781 199.142 196.825 200.816 196.361 202.644H45.6532V202.63Z" fill="#E1E4E6"/>
<path d="M157.563 66.1245H216.625C214.727 88.8495 214.234 113.431 214.192 139.657C214.136 167.164 215.345 192.898 217.314 216.593H24.686C26.022 189.157 26.697 160.343 26.486 130.306C26.3173 108.2 26.3876 86.7964 25.3751 66.1245H86.0267" stroke="black" stroke-width="2" stroke-linecap="round" stroke-linejoin="round"/>
<path d="M78.8125 160.344H163.188" stroke="black" stroke-width="2" stroke-linecap="round" stroke-linejoin="round"/>
<path d="M98.1201 174.491H143.95" stroke="black" stroke-width="2" stroke-linecap="round" stroke-linejoin="round"/>
<path d="M120.986 33.4298C119.045 33.4298 117.47 31.8548 117.47 29.9142V13.6157C117.47 11.6751 119.045 10.1001 120.986 10.1001C122.926 10.1001 124.501 11.6751 124.501 13.6157V29.9142C124.501 31.8548 122.926 33.4298 120.986 33.4298Z" fill="#F0B323"/>
<path d="M148.267 43.9346C146.889 42.5564 146.889 40.3346 148.267 38.9564L159.798 27.4252C161.176 26.0471 163.398 26.0471 164.776 27.4252C166.154 28.8033 166.154 31.0252 164.776 32.4033L153.245 43.9346C151.867 45.3127 149.645 45.3127 148.267 43.9346Z" fill="#F0B323"/>
<path d="M94.2812 45.2983C92.9031 46.6765 90.6812 46.6765 89.3031 45.2983L77.7719 33.7671C76.3938 32.389 76.3938 30.1671 77.7719 28.789C79.15 27.4108 81.3719 27.4108 82.75 28.789L94.2812 40.3202C95.6594 41.6983 95.6594 43.9202 94.2812 45.2983Z" fill="#F0B323"/>
<path d="M151.488 70.4701C151.488 53.3841 137.06 39.6591 119.692 40.7279C104.758 41.656 92.6221 53.806 91.7642 68.6982C91.3002 76.7982 94.0705 84.2373 98.9221 89.8623C103.731 95.4591 108.231 103.812 109.891 110.984H134.5V110.351C135.977 103.756 140.505 94.5029 144.794 89.2576C149.083 84.0123 151.502 77.5857 151.502 70.456L151.488 70.4701Z" fill="url(#paint0_linear_1925_1377)"/>
<path d="M122.364 140.656C141.299 140.656 156.648 136.734 156.648 131.895C156.648 127.057 141.299 123.134 122.364 123.134C103.429 123.134 88.0796 127.057 88.0796 131.895C88.0796 136.734 103.429 140.656 122.364 140.656Z" fill="url(#paint1_linear_1925_1377)"/>
<path d="M130.183 108.256C130.183 102.209 113.308 98.8061 113.308 95.0936V94.8826C113.308 92.8857 115.136 91.1982 117.583 89.6654L126.021 85.3342C128.411 84.0967 129.944 83.3936 129.944 80.8482C129.944 76.967 126.231 74.4639 121.647 74.4639C117.063 74.4639 113.35 76.967 113.35 80.8482C113.35 82.4514 115.08 84.0967 117.456 85.3342C117.906 85.5592 118.371 85.8123 118.863 86.0373C119.791 86.5014 120.761 86.9514 121.746 87.4436C122.702 87.9217 123.672 88.3998 124.572 88.906C125.036 89.1592 125.472 89.4123 125.894 89.6795C128.341 91.1982 130.169 92.8998 130.169 94.8826V95.0936C130.169 96.2889 128.411 97.4701 126.021 98.6936L117.583 103.039C115.136 104.558 113.294 106.259 113.294 108.242" stroke="white" stroke-width="2" stroke-linecap="round" stroke-linejoin="round"/>
<path d="M114.264 117.734C129.1 117.734 134.486 110.829 134.486 110.829V124.034C134.486 127.029 132.545 129.687 129.634 130.685C127.708 131.346 125.331 131.867 122.462 131.923C118.989 132.007 116.148 131.388 113.926 130.615C111.1 129.631 109.244 126.959 109.244 124.034V110.843" fill="white"/>
<path d="M114.264 117.734C129.1 117.734 134.486 110.829 134.486 110.829V124.034C134.486 127.029 132.545 129.687 129.634 130.685C127.708 131.346 125.331 131.867 122.462 131.923C118.989 132.007 116.148 131.388 113.926 130.615C111.1 129.631 109.244 126.959 109.244 124.034V110.843" stroke="black" stroke-width="2" stroke-linecap="round" stroke-linejoin="round"/>
<path d="M114.264 124.485C129.1 124.485 134.486 117.581 134.486 117.581" stroke="black" stroke-width="2" stroke-linecap="round" stroke-linejoin="round"/>
<defs>
<linearGradient id="paint0_linear_1925_1377" x1="98.3033" y1="99.4107" x2="145.525" y2="52.1888" gradientUnits="userSpaceOnUse">
<stop stop-color="#F0B323"/>
<stop offset="1" stop-color="#F0B323"/>
</linearGradient>
<linearGradient id="paint1_linear_1925_1377" x1="104.659" y1="149.586" x2="140.055" y2="114.191" gradientUnits="userSpaceOnUse">
<stop stop-color="#0058A5"/>
<stop offset="0.14" stop-color="#0068B1"/>
<stop offset="0.52" stop-color="#008FD0"/>
<stop offset="0.82" stop-color="#00A8E3"/>
<stop offset="1" stop-color="#00B1EA"/>
</linearGradient>
</defs>
</svg>
