<svg width="268" height="178" viewBox="0 0 268 178" fill="none" xmlns="http://www.w3.org/2000/svg">
<path d="M255.006 127.608C172.572 182.831 142.985 124.528 44.533 167.784L43.0986 157.266C130.146 113.714 165.189 163.27 239.552 102.83L225.489 42.3187C230.721 39.2812 236.163 35.7374 241.858 31.603L255.006 127.608Z" fill="#E1E4E6"/>
<path d="M218.514 102.956C205.408 111.745 192.723 117.427 179.448 120.52C165.526 123.741 151.984 123.952 137.655 124.163C120.751 124.402 103.286 124.669 82.4733 129.506C72.1515 131.911 61.8718 135.258 51.4937 139.617C49.8905 132.938 43.703 128.972 38.303 131.278L28.5015 89.1329C33.8452 86.7282 36.6577 80.0485 35.0827 73.3548C44.9827 69.0095 54.6999 65.7329 64.4452 63.4829C83.7249 58.9829 100.516 59.0532 116.744 59.1235C132.451 59.1798 147.273 59.236 163.473 55.4673C176.495 52.4438 188.912 47.2126 201.358 39.436C202.806 45.7923 209.064 49.1814 213.831 46.2282L223.562 88.0501C219.175 90.9751 217.164 97.0079 218.528 102.956H218.514Z" fill="url(#paint0_linear_1925_1326)"/>
<path d="M28.5015 89.1326C33.8452 86.7279 36.6577 80.0482 35.0827 73.3545" stroke="black" stroke-width="2" stroke-linecap="round" stroke-linejoin="round"/>
<path d="M51.4797 139.617C49.8766 132.938 43.6891 128.972 38.2891 131.278" stroke="black" stroke-width="2" stroke-linecap="round" stroke-linejoin="round"/>
<path d="M223.548 88.0498C219.161 90.9748 217.15 97.0076 218.514 102.956" stroke="black" stroke-width="2" stroke-linecap="round" stroke-linejoin="round"/>
<path d="M201.344 39.4224C202.792 45.7786 209.05 49.1677 213.817 46.2145" stroke="black" stroke-width="2" stroke-linecap="round" stroke-linejoin="round"/>
<path d="M217.6 10.0308C141.564 76.7292 105.775 17.287 11.7246 69.4448L33.6762 163.832C127.726 111.689 162.573 167.01 239.551 104.418L217.6 10.0308Z" stroke="black" stroke-width="2" stroke-linecap="round" stroke-linejoin="round"/>
<path d="M131.514 115.236C142.892 112.59 149.608 99.6648 146.516 86.366C143.423 73.0673 131.694 64.4311 120.316 67.0766C108.939 69.7221 102.223 82.6475 105.315 95.9462C108.407 109.245 120.137 117.881 131.514 115.236Z" stroke="black" stroke-width="2" stroke-miterlimit="10"/>
<path d="M62.9409 98.8227C70.169 93.043 86.0737 93.043 86.0737 93.043" stroke="black" stroke-width="2" stroke-miterlimit="10" stroke-linecap="round"/>
<path d="M185.833 81.4688C178.605 87.2484 162.7 87.2484 162.7 87.2484" stroke="black" stroke-width="2" stroke-miterlimit="10" stroke-linecap="round"/>
<path d="M219.527 166.87C233.6 166.87 245.008 155.461 245.008 141.388C245.008 127.316 233.6 115.907 219.527 115.907C205.454 115.907 194.045 127.316 194.045 141.388C194.045 155.461 205.454 166.87 219.527 166.87Z" fill="url(#paint1_linear_1925_1326)"/>
<path d="M219.527 160.865C230.283 160.865 239.003 152.145 239.003 141.389C239.003 130.632 230.283 121.912 219.527 121.912C208.77 121.912 200.05 130.632 200.05 141.389C200.05 152.145 208.77 160.865 219.527 160.865Z" stroke="white" stroke-width="2" stroke-miterlimit="10"/>
<path d="M203.383 121.673C204.48 122.84 205.492 124.092 206.42 125.442C211.117 132.262 212.875 140.531 211.356 148.701C210.414 153.82 208.262 158.503 205.112 162.426" stroke="black" stroke-width="2" stroke-miterlimit="10" stroke-linecap="round"/>
<path d="M180.799 172.693C197.171 172.693 210.443 159.421 210.443 143.049C210.443 126.677 197.171 113.405 180.799 113.405C164.427 113.405 151.155 126.677 151.155 143.049C151.155 159.421 164.427 172.693 180.799 172.693Z" fill="url(#paint2_linear_1925_1326)"/>
<path d="M180.799 165.716C193.318 165.716 203.467 155.567 203.467 143.048C203.467 130.528 193.318 120.379 180.799 120.379C168.279 120.379 158.13 130.528 158.13 143.048C158.13 155.567 168.279 165.716 180.799 165.716Z" stroke="white" stroke-width="2" stroke-miterlimit="10"/>
<path d="M118.206 87.9797C118.234 85.2937 118.867 83.1703 120.133 81.5953C121.398 80.0203 123.198 79.0078 125.533 78.5719C126.503 78.3891 127.319 78.3047 127.979 78.3047C128.64 78.3047 129.315 78.3469 129.99 78.4312L129.822 81.2016C129.259 81.1031 128.64 81.0469 127.994 81.0469C127.347 81.0469 126.686 81.1031 126.025 81.2297C125.181 81.3844 124.478 81.6516 123.887 82.0031C123.297 82.3687 122.819 82.8047 122.453 83.3391C122.087 83.8734 121.806 84.4781 121.637 85.1531C121.469 85.8422 121.384 86.5734 121.37 87.3891L129.09 85.9406V88.4156L121.483 89.8359C121.511 90.1312 121.553 90.4125 121.609 90.7078C121.665 90.9891 121.722 91.2984 121.778 91.6078C121.834 91.8891 121.89 92.1703 121.933 92.4375C121.975 92.7047 122.045 92.9578 122.101 93.1969L129.034 91.9031V94.3781L122.819 95.5453C123.564 97.4437 124.506 98.6812 125.631 99.2719C126.756 99.8625 128.064 100.017 129.54 99.7359C130.469 99.5672 131.256 99.3281 131.889 99.0187C132.536 98.7094 133.098 98.4 133.576 98.0484L134.73 100.537C134.392 100.805 133.773 101.142 132.887 101.536C132.001 101.93 130.989 102.239 129.864 102.45C127.276 102.928 125.139 102.605 123.465 101.466C121.792 100.327 120.498 98.5547 119.612 96.1219L116.631 96.6844L116.181 94.2937L118.895 93.7875C118.825 93.5484 118.769 93.2953 118.726 93.0281C118.67 92.7609 118.628 92.4797 118.572 92.1984C118.515 91.8891 118.459 91.5937 118.403 91.2984C118.347 91.0172 118.304 90.7219 118.276 90.4266L115.562 90.9328L115.112 88.5422L118.164 87.9656L118.206 87.9797Z" fill="white"/>
<defs>
<linearGradient id="paint0_linear_1925_1326" x1="60.9858" y1="153.961" x2="191.275" y2="23.672" gradientUnits="userSpaceOnUse">
<stop stop-color="#0058A5"/>
<stop offset="0.14" stop-color="#0068B1"/>
<stop offset="0.52" stop-color="#008FD0"/>
<stop offset="0.82" stop-color="#00A8E3"/>
<stop offset="1" stop-color="#00B1EA"/>
</linearGradient>
<linearGradient id="paint1_linear_1925_1326" x1="201.499" y1="159.417" x2="237.541" y2="123.374" gradientUnits="userSpaceOnUse">
<stop stop-color="#F0B323"/>
<stop offset="1" stop-color="#F0B323"/>
</linearGradient>
<linearGradient id="paint2_linear_1925_1326" x1="159.846" y1="164.002" x2="201.766" y2="122.082" gradientUnits="userSpaceOnUse">
<stop stop-color="#F0B323"/>
<stop offset="1" stop-color="#F0B323"/>
</linearGradient>
</defs>
</svg>
